# xmcd CD database file
#
# Track frame offsets:
#	150
#	17328
#	33005
#	51758
#	68313
#	85395
#	99512
#	117432
#	132329
#	148919
#	165399
#	177571
#	193802
#	209287
#
# Disc length: 3026 seconds
#
# Revision: 0
# Processed by: cddbd v1.5.2PL0 Copyright (c) Steve Scherf et al.
# Submitted via: CDex 1.51
#
DISCID=bc0bd00e
DTITLE=Asleep At The Wheel - Asleep At The Wheel
DYEAR=1900
DGENRE=Country
TTITLE0=The Letter (That Johnny Walker Read)
TTITLE1=Ani't Nobody Here But Us Chickens
TTITLE2=(Get Your Kicks On) Route 66
TTITLE3=Take Me Back To Tulsa
TTITLE4=My Baby Thinks She's A Train
TTITLE5=House Of Blue Lights
TTITLE6=Miles And Miles Of Texas
TTITLE7=Sugarfoot Rag
TTITLE8=Choo Choo Ch'Boogie
TTITLE9=Dance With Who Brung You
TTITLE10=Big Balls In Cowtown (George Strait and George Benson)
TTITLE11=Last Meal (Huey Lewis)
TTITLE12=Boogie Back To Texas
TTITLE13=Texas Me And You
EXTD=
EXTT0=
EXTT1=
EXTT2=
EXTT3=
EXTT4=
EXTT5=
EXTT6=
EXTT7=
EXTT8=
EXTT9=
EXTT10=
EXTT11=
EXTT12=
EXTT13=
PLAYORDER=
